<svg viewBox="52 90 692 117" xmlns="http://www.w3.org/2000/svg" fill="none" role="img" aria-label="Ensemble">
<path d="M152.584 112.752C155.741 112.752 158.173 113.435 159.88 114.8C161.672 116.165 162.568 118.043 162.568 120.432C162.568 121.627 162.397 122.779 162.056 123.888L158.728 135.792C158.131 138.096 157.235 139.717 156.04 140.656C154.931 141.509 153.309 141.936 151.176 141.936C149.128 141.936 147.507 141.509 146.312 140.656C145.203 139.717 144.349 138.224 143.752 136.176L141.704 128.88C141.277 127.344 140.765 126.32 140.168 125.808C139.571 125.296 138.419 125.04 136.712 125.04H123.272L116.872 147.824H122.504C123.101 147.824 123.912 147.397 124.936 146.544L129.288 142.704C130.568 141.595 131.677 140.784 132.616 140.272C133.555 139.76 134.707 139.504 136.072 139.504C137.608 139.504 138.845 139.931 139.784 140.784C140.808 141.552 141.32 142.576 141.32 143.856C141.32 144.197 141.235 144.709 141.064 145.392L135.816 163.184C135.304 165.061 134.408 166.469 133.128 167.408C131.933 168.261 130.611 168.688 129.16 168.688C126.771 168.688 124.979 167.451 123.784 164.976L121.608 160.496C121.011 159.216 120.072 158.576 118.792 158.576H113.8L106.248 185.712H117.512C119.133 185.712 120.541 185.413 121.736 184.816C123.016 184.133 124.381 182.981 125.832 181.36L133.512 172.912C134.877 171.461 136.157 170.437 137.352 169.84C138.632 169.157 140.168 168.816 141.96 168.816C143.837 168.816 145.373 169.243 146.568 170.096C147.763 170.949 148.36 172.229 148.36 173.936C148.36 174.619 148.232 175.429 147.976 176.368L144.264 189.296C143.325 192.539 141.96 194.8 140.168 196.08C138.376 197.36 135.773 198 132.36 198H71.304C69.512 198 68.1467 197.701 67.208 197.104C66.184 196.507 65.672 195.696 65.672 194.672C65.672 194.16 65.8 193.605 66.056 193.008C66.3973 192.069 66.952 191.344 67.72 190.832C68.488 190.32 68.9573 190.021 69.128 189.936C70.4933 189.083 71.6027 188.229 72.456 187.376C73.3093 186.437 74.0347 184.944 74.632 182.896L90.376 127.728C90.7173 126.619 90.888 125.595 90.888 124.656C90.888 123.632 90.7173 122.779 90.376 122.096C90.12 121.413 89.6933 120.688 89.096 119.92C88.328 118.811 87.944 117.915 87.944 117.232C87.944 116.976 88.0293 116.507 88.2 115.824C88.5413 114.715 89.3093 113.947 90.504 113.52C91.6987 113.008 93.448 112.752 95.752 112.752H152.584ZM234.107 180.336C233.936 180.677 233.851 181.189 233.851 181.872C233.851 182.469 233.979 182.939 234.235 183.28C234.576 183.621 235.003 183.792 235.515 183.792C236.539 183.792 237.392 183.365 238.075 182.512C238.843 181.573 239.355 181.104 239.611 181.104C240.038 181.104 240.379 181.403 240.635 182C240.891 182.512 241.019 183.152 241.019 183.92C241.104 186.395 240.294 188.827 238.587 191.216C236.88 193.52 234.363 195.44 231.035 196.976C227.792 198.427 223.867 199.152 219.259 199.152C213.627 199.152 209.147 197.872 205.819 195.312C202.491 192.667 200.784 189.168 200.699 184.816C200.699 181.659 201.467 178.117 203.003 174.192L210.043 155.76C210.47 154.651 210.683 153.755 210.683 153.072C210.683 151.963 210.299 151.109 209.531 150.512C208.848 149.829 207.995 149.488 206.971 149.488C205.094 149.488 203.302 150.384 201.595 152.176C199.888 153.883 198.651 156.016 197.883 158.576L189.947 184.688C189.606 185.627 189.435 186.523 189.435 187.376C189.435 188.4 189.648 189.253 190.075 189.936C190.502 190.533 191.099 191.173 191.867 191.856C192.464 192.368 192.891 192.837 193.147 193.264C193.403 193.691 193.446 194.203 193.275 194.8C192.934 195.909 192.123 196.72 190.843 197.232C189.563 197.744 187.558 198 184.827 198H155.643C153.424 198 151.846 197.659 150.907 196.976C149.883 196.208 149.499 195.227 149.755 194.032C150.096 193.008 150.992 192.112 152.443 191.344C153.723 190.661 154.79 189.851 155.643 188.912C156.496 187.973 157.222 186.48 157.819 184.432L169.211 147.44C169.382 147.013 169.467 146.416 169.467 145.648C169.467 144.709 169.254 143.984 168.827 143.472C168.486 142.96 167.888 142.32 167.035 141.552C166.182 140.869 165.584 140.272 165.243 139.76C164.902 139.248 164.859 138.565 165.115 137.712C165.627 135.749 168.315 134.043 173.179 132.592C178.043 131.056 183.12 130.288 188.411 130.288C192.678 130.288 196.048 131.483 198.523 133.872C200.998 136.176 202.107 139.419 201.851 143.6C205.35 138.565 209.062 135.109 212.987 133.232C216.912 131.269 221.179 130.288 225.787 130.288C230.992 130.288 235.174 131.867 238.331 135.024C241.574 138.181 243.195 142.277 243.195 147.312C243.195 149.957 242.768 152.56 241.915 155.12L234.107 180.336ZM288.612 129.136C295.695 129.136 301.796 129.776 306.916 131.056C312.121 132.336 316.089 134.128 318.82 136.432C321.636 138.736 323.044 141.339 323.044 144.24C323.044 147.227 321.849 149.659 319.46 151.536C317.156 153.413 313.913 154.352 309.732 154.352C305.465 154.352 301.839 153.285 298.852 151.152C295.951 149.019 294.5 146.331 294.5 143.088C294.5 141.979 294.671 140.912 295.012 139.888C293.476 139.461 292.111 139.248 290.916 139.248C288.783 139.248 286.991 139.76 285.54 140.784C284.175 141.808 283.535 143.259 283.62 145.136C283.62 147.355 284.729 149.232 286.948 150.768C289.167 152.304 292.751 154.224 297.7 156.528C301.967 158.405 305.465 160.155 308.196 161.776C311.012 163.312 313.359 165.275 315.236 167.664C317.199 170.053 318.18 172.869 318.18 176.112C318.18 176.795 318.009 178.075 317.668 179.952C316.303 185.669 312.505 190.192 306.276 193.52C300.047 196.848 291.855 198.512 281.7 198.512C270.265 198.512 261.177 196.976 254.436 193.904C247.78 190.832 244.452 186.608 244.452 181.232C244.452 177.563 245.561 174.789 247.78 172.912C249.999 171.035 252.943 170.096 256.612 170.096C260.879 170.096 264.505 171.419 267.492 174.064C270.564 176.709 272.1 180.08 272.1 184.176C272.1 185.285 271.972 186.437 271.716 187.632C273.764 188.144 275.727 188.4 277.604 188.4C279.823 188.4 281.657 187.803 283.108 186.608C284.559 185.413 285.284 183.749 285.284 181.616C285.199 179.653 284.217 177.989 282.34 176.624C280.463 175.173 277.476 173.467 273.38 171.504C269.54 169.712 266.383 168.048 263.908 166.512C261.433 164.891 259.3 162.885 257.508 160.496C255.801 158.107 254.948 155.291 254.948 152.048C254.948 145.051 257.849 139.504 263.652 135.408C269.54 131.227 277.86 129.136 288.612 129.136ZM365.767 129.648C376.604 129.648 384.455 131.397 389.319 134.896C394.183 138.309 396.615 142.704 396.615 148.08C396.615 149.701 396.444 151.195 396.103 152.56C394.823 158.192 391.239 162.245 385.351 164.72C379.548 167.109 372.679 168.304 364.743 168.304C360.732 168.304 356.978 168.048 353.479 167.536C353.394 171.973 354.588 175.088 357.063 176.88C359.538 178.672 362.994 179.568 367.431 179.568C369.479 179.568 371.442 179.355 373.319 178.928C375.196 178.416 377.586 177.691 380.487 176.752C382.876 175.899 384.498 175.472 385.351 175.472C386.29 175.472 386.759 176.027 386.759 177.136C386.844 180.123 385.735 183.28 383.431 186.608C381.127 189.851 377.714 192.624 373.191 194.928C368.668 197.232 363.207 198.384 356.807 198.384C347.335 198.384 339.57 195.995 333.511 191.216C327.452 186.437 324.423 179.483 324.423 170.352C324.423 167.792 324.764 164.805 325.447 161.392C327.58 150.896 332.231 143.003 339.399 137.712C346.652 132.336 355.442 129.648 365.767 129.648ZM354.375 159.856C354.716 159.941 355.186 159.984 355.783 159.984C359.367 159.984 362.098 158.32 363.975 154.992C365.852 151.664 366.748 147.952 366.663 143.856C366.578 141.467 365.895 140.272 364.615 140.272C363.676 140.272 362.567 141.04 361.287 142.576C360.007 144.027 358.727 146.245 357.447 149.232C356.252 152.219 355.228 155.76 354.375 159.856ZM515.728 180.336C515.557 180.677 515.472 181.189 515.472 181.872C515.472 182.469 515.6 182.939 515.856 183.28C516.197 183.621 516.624 183.792 517.136 183.792C518.16 183.792 519.013 183.365 519.696 182.512C520.464 181.573 520.976 181.104 521.232 181.104C521.659 181.104 522 181.403 522.256 182C522.512 182.512 522.64 183.152 522.64 183.92C522.725 186.395 521.915 188.827 520.208 191.216C518.501 193.52 515.984 195.44 512.656 196.976C509.413 198.427 505.488 199.152 500.88 199.152C495.248 199.152 490.768 197.872 487.44 195.312C484.112 192.667 482.405 189.168 482.32 184.816C482.32 181.659 483.088 178.117 484.624 174.192L491.664 155.76C492.091 154.651 492.304 153.755 492.304 153.072C492.304 151.963 491.92 151.109 491.152 150.512C490.469 149.829 489.616 149.488 488.592 149.488C487.141 149.488 485.648 150.128 484.112 151.408C482.576 152.688 481.211 154.693 480.016 157.424L472.976 180.336C472.805 180.677 472.72 181.189 472.72 181.872C472.72 182.469 472.848 182.939 473.104 183.28C473.445 183.621 473.872 183.792 474.384 183.792C475.408 183.792 476.261 183.365 476.944 182.512C477.712 181.573 478.224 181.104 478.48 181.104C478.907 181.104 479.248 181.403 479.504 182C479.76 182.512 479.888 183.152 479.888 183.92C479.973 186.395 479.163 188.827 477.456 191.216C475.749 193.52 473.232 195.44 469.904 196.976C466.661 198.427 462.736 199.152 458.128 199.152C452.496 199.152 448.016 197.872 444.688 195.312C441.36 192.667 439.653 189.168 439.568 184.816C439.568 181.659 440.336 178.117 441.872 174.192L448.912 155.76C449.339 154.651 449.552 153.755 449.552 153.072C449.552 151.963 449.168 151.109 448.4 150.512C447.717 149.829 446.864 149.488 445.84 149.488C444.389 149.488 442.896 150.128 441.36 151.408C439.824 152.603 438.544 154.565 437.52 157.296L429.072 184.688C428.731 185.627 428.56 186.523 428.56 187.376C428.56 188.4 428.773 189.253 429.2 189.936C429.627 190.533 430.224 191.173 430.992 191.856C431.589 192.368 432.016 192.837 432.272 193.264C432.528 193.691 432.571 194.203 432.4 194.8C432.059 195.909 431.248 196.72 429.968 197.232C428.688 197.744 426.683 198 423.952 198H394.768C392.549 198 390.971 197.659 390.032 196.976C389.008 196.208 388.624 195.227 388.88 194.032C389.221 193.008 390.117 192.112 391.568 191.344C392.848 190.661 393.915 189.851 394.768 188.912C395.621 187.973 396.347 186.48 396.944 184.432L408.336 147.44C408.507 147.013 408.592 146.416 408.592 145.648C408.592 144.709 408.379 143.984 407.952 143.472C407.611 142.96 407.013 142.32 406.16 141.552C405.307 140.869 404.709 140.272 404.368 139.76C404.027 139.248 403.984 138.565 404.24 137.712C404.752 135.749 407.44 134.043 412.304 132.592C417.168 131.056 422.245 130.288 427.536 130.288C431.717 130.288 435.003 131.44 437.392 133.744C439.867 136.048 441.061 139.205 440.976 143.216C444.475 138.352 448.144 134.981 451.984 133.104C455.909 131.227 460.133 130.288 464.656 130.288C469.605 130.288 473.616 131.739 476.688 134.64C479.845 137.456 481.595 141.168 481.936 145.776C485.605 139.973 489.531 135.963 493.712 133.744C497.893 131.44 502.459 130.288 507.408 130.288C512.613 130.288 516.795 131.867 519.952 135.024C523.195 138.181 524.816 142.277 524.816 147.312C524.816 149.957 524.389 152.56 523.536 155.12L515.728 180.336ZM593.405 129.776C599.72 129.776 604.754 132.037 608.509 136.56C612.349 141.083 614.269 147.056 614.269 154.48C614.269 158.32 613.8 162.075 612.861 165.744C610.13 176.752 605.437 185.072 598.781 190.704C592.21 196.336 584.616 199.152 575.997 199.152C571.133 199.152 566.909 198.341 563.325 196.72C559.826 195.013 557.01 192.624 554.877 189.552L550.269 193.52C548.477 195.056 546.728 196.208 545.021 196.976C543.314 197.659 541.352 198 539.133 198H533.501C531.368 198 529.704 197.573 528.509 196.72C527.4 195.781 526.845 194.459 526.845 192.752C526.845 191.984 526.973 191.088 527.229 190.064L548.605 120.56C548.861 119.792 548.989 119.152 548.989 118.64C548.989 117.189 548.093 115.824 546.301 114.544C545.448 113.776 544.85 113.179 544.509 112.752C544.168 112.24 544.125 111.6 544.381 110.832C544.978 108.869 547.666 107.163 552.445 105.712C557.309 104.176 562.386 103.408 567.677 103.408C572.626 103.408 576.253 104.389 578.557 106.352C580.946 108.229 582.141 110.789 582.141 114.032C582.141 115.824 581.842 117.616 581.245 119.408L575.869 136.816C580.818 132.123 586.664 129.776 593.405 129.776ZM578.941 164.976C580.648 159.173 581.501 154.48 581.501 150.896C581.501 146.971 580.349 145.008 578.045 145.008C575.997 145.008 574.077 146.075 572.285 148.208L563.965 175.344L563.197 177.776C562.77 179.056 562.557 180.379 562.557 181.744C562.557 184.731 563.965 186.224 566.781 186.224C568.829 186.224 570.792 184.731 572.669 181.744C574.546 178.757 576.637 173.168 578.941 164.976ZM655.582 103.408C660.531 103.408 664.158 104.347 666.462 106.224C668.851 108.101 670.046 110.661 670.046 113.904C670.046 115.781 669.747 117.616 669.15 119.408L649.054 184.688C648.798 185.712 648.67 186.608 648.67 187.376C648.67 188.485 648.883 189.381 649.31 190.064C649.737 190.661 650.334 191.259 651.102 191.856C651.699 192.453 652.126 192.965 652.382 193.392C652.638 193.733 652.681 194.203 652.51 194.8C652.083 195.909 651.23 196.72 649.95 197.232C648.67 197.744 646.707 198 644.062 198H614.878C612.659 198 611.038 197.659 610.014 196.976C608.99 196.208 608.649 195.227 608.99 194.032C609.331 193.008 610.227 192.112 611.678 191.344C612.958 190.661 614.025 189.851 614.878 188.912C615.731 187.973 616.457 186.48 617.054 184.432L636.51 120.56C636.766 119.792 636.894 119.152 636.894 118.64C636.894 117.701 636.638 116.933 636.126 116.336C635.699 115.739 635.102 115.141 634.334 114.544C633.481 113.861 632.841 113.264 632.414 112.752C632.073 112.24 632.03 111.557 632.286 110.704C632.798 108.741 635.486 107.035 640.35 105.584C645.214 104.133 650.291 103.408 655.582 103.408ZM705.017 129.648C715.854 129.648 723.705 131.397 728.569 134.896C733.433 138.309 735.865 142.704 735.865 148.08C735.865 149.701 735.694 151.195 735.353 152.56C734.073 158.192 730.489 162.245 724.601 164.72C718.798 167.109 711.929 168.304 703.993 168.304C699.982 168.304 696.228 168.048 692.729 167.536C692.644 171.973 693.838 175.088 696.313 176.88C698.788 178.672 702.244 179.568 706.681 179.568C708.729 179.568 710.692 179.355 712.569 178.928C714.446 178.416 716.836 177.691 719.737 176.752C722.126 175.899 723.748 175.472 724.601 175.472C725.54 175.472 726.009 176.027 726.009 177.136C726.094 180.123 724.985 183.28 722.681 186.608C720.377 189.851 716.964 192.624 712.441 194.928C707.918 197.232 702.457 198.384 696.057 198.384C686.585 198.384 678.82 195.995 672.761 191.216C666.702 186.437 663.673 179.483 663.673 170.352C663.673 167.792 664.014 164.805 664.697 161.392C666.83 150.896 671.481 143.003 678.649 137.712C685.902 132.336 694.692 129.648 705.017 129.648ZM693.625 159.856C693.966 159.941 694.436 159.984 695.033 159.984C698.617 159.984 701.348 158.32 703.225 154.992C705.102 151.664 705.998 147.952 705.913 143.856C705.828 141.467 705.145 140.272 703.865 140.272C702.926 140.272 701.817 141.04 700.537 142.576C699.257 144.027 697.977 146.245 696.697 149.232C695.502 152.219 694.478 155.76 693.625 159.856Z" fill="#FA3C96"/>
<path d="M147.584 107.752C150.741 107.752 153.173 108.435 154.88 109.8C156.672 111.165 157.568 113.043 157.568 115.432C157.568 116.627 157.397 117.779 157.056 118.888L153.728 130.792C153.131 133.096 152.235 134.717 151.04 135.656C149.931 136.509 148.309 136.936 146.176 136.936C144.128 136.936 142.507 136.509 141.312 135.656C140.203 134.717 139.349 133.224 138.752 131.176L136.704 123.88C136.277 122.344 135.765 121.32 135.168 120.808C134.571 120.296 133.419 120.04 131.712 120.04H118.272L111.872 142.824H117.504C118.101 142.824 118.912 142.397 119.936 141.544L124.288 137.704C125.568 136.595 126.677 135.784 127.616 135.272C128.555 134.76 129.707 134.504 131.072 134.504C132.608 134.504 133.845 134.931 134.784 135.784C135.808 136.552 136.32 137.576 136.32 138.856C136.32 139.197 136.235 139.709 136.064 140.392L130.816 158.184C130.304 160.061 129.408 161.469 128.128 162.408C126.933 163.261 125.611 163.688 124.16 163.688C121.771 163.688 119.979 162.451 118.784 159.976L116.608 155.496C116.011 154.216 115.072 153.576 113.792 153.576H108.8L101.248 180.712H112.512C114.133 180.712 115.541 180.413 116.736 179.816C118.016 179.133 119.381 177.981 120.832 176.36L128.512 167.912C129.877 166.461 131.157 165.437 132.352 164.84C133.632 164.157 135.168 163.816 136.96 163.816C138.837 163.816 140.373 164.243 141.568 165.096C142.763 165.949 143.36 167.229 143.36 168.936C143.36 169.619 143.232 170.429 142.976 171.368L139.264 184.296C138.325 187.539 136.96 189.8 135.168 191.08C133.376 192.36 130.773 193 127.36 193H66.304C64.512 193 63.1467 192.701 62.208 192.104C61.184 191.507 60.672 190.696 60.672 189.672C60.672 189.16 60.8 188.605 61.056 188.008C61.3973 187.069 61.952 186.344 62.72 185.832C63.488 185.32 63.9573 185.021 64.128 184.936C65.4933 184.083 66.6027 183.229 67.456 182.376C68.3093 181.437 69.0347 179.944 69.632 177.896L85.376 122.728C85.7173 121.619 85.888 120.595 85.888 119.656C85.888 118.632 85.7173 117.779 85.376 117.096C85.12 116.413 84.6933 115.688 84.096 114.92C83.328 113.811 82.944 112.915 82.944 112.232C82.944 111.976 83.0293 111.507 83.2 110.824C83.5413 109.715 84.3093 108.947 85.504 108.52C86.6987 108.008 88.448 107.752 90.752 107.752H147.584ZM229.107 175.336C228.936 175.677 228.851 176.189 228.851 176.872C228.851 177.469 228.979 177.939 229.235 178.28C229.576 178.621 230.003 178.792 230.515 178.792C231.539 178.792 232.392 178.365 233.075 177.512C233.843 176.573 234.355 176.104 234.611 176.104C235.038 176.104 235.379 176.403 235.635 177C235.891 177.512 236.019 178.152 236.019 178.92C236.104 181.395 235.294 183.827 233.587 186.216C231.88 188.52 229.363 190.44 226.035 191.976C222.792 193.427 218.867 194.152 214.259 194.152C208.627 194.152 204.147 192.872 200.819 190.312C197.491 187.667 195.784 184.168 195.699 179.816C195.699 176.659 196.467 173.117 198.003 169.192L205.043 150.76C205.47 149.651 205.683 148.755 205.683 148.072C205.683 146.963 205.299 146.109 204.531 145.512C203.848 144.829 202.995 144.488 201.971 144.488C200.094 144.488 198.302 145.384 196.595 147.176C194.888 148.883 193.651 151.016 192.883 153.576L184.947 179.688C184.606 180.627 184.435 181.523 184.435 182.376C184.435 183.4 184.648 184.253 185.075 184.936C185.502 185.533 186.099 186.173 186.867 186.856C187.464 187.368 187.891 187.837 188.147 188.264C188.403 188.691 188.446 189.203 188.275 189.8C187.934 190.909 187.123 191.72 185.843 192.232C184.563 192.744 182.558 193 179.827 193H150.643C148.424 193 146.846 192.659 145.907 191.976C144.883 191.208 144.499 190.227 144.755 189.032C145.096 188.008 145.992 187.112 147.443 186.344C148.723 185.661 149.79 184.851 150.643 183.912C151.496 182.973 152.222 181.48 152.819 179.432L164.211 142.44C164.382 142.013 164.467 141.416 164.467 140.648C164.467 139.709 164.254 138.984 163.827 138.472C163.486 137.96 162.888 137.32 162.035 136.552C161.182 135.869 160.584 135.272 160.243 134.76C159.902 134.248 159.859 133.565 160.115 132.712C160.627 130.749 163.315 129.043 168.179 127.592C173.043 126.056 178.12 125.288 183.411 125.288C187.678 125.288 191.048 126.483 193.523 128.872C195.998 131.176 197.107 134.419 196.851 138.6C200.35 133.565 204.062 130.109 207.987 128.232C211.912 126.269 216.179 125.288 220.787 125.288C225.992 125.288 230.174 126.867 233.331 130.024C236.574 133.181 238.195 137.277 238.195 142.312C238.195 144.957 237.768 147.56 236.915 150.12L229.107 175.336ZM283.612 124.136C290.695 124.136 296.796 124.776 301.916 126.056C307.121 127.336 311.089 129.128 313.82 131.432C316.636 133.736 318.044 136.339 318.044 139.24C318.044 142.227 316.849 144.659 314.46 146.536C312.156 148.413 308.913 149.352 304.732 149.352C300.465 149.352 296.839 148.285 293.852 146.152C290.951 144.019 289.5 141.331 289.5 138.088C289.5 136.979 289.671 135.912 290.012 134.888C288.476 134.461 287.111 134.248 285.916 134.248C283.783 134.248 281.991 134.76 280.54 135.784C279.175 136.808 278.535 138.259 278.62 140.136C278.62 142.355 279.729 144.232 281.948 145.768C284.167 147.304 287.751 149.224 292.7 151.528C296.967 153.405 300.465 155.155 303.196 156.776C306.012 158.312 308.359 160.275 310.236 162.664C312.199 165.053 313.18 167.869 313.18 171.112C313.18 171.795 313.009 173.075 312.668 174.952C311.303 180.669 307.505 185.192 301.276 188.52C295.047 191.848 286.855 193.512 276.7 193.512C265.265 193.512 256.177 191.976 249.436 188.904C242.78 185.832 239.452 181.608 239.452 176.232C239.452 172.563 240.561 169.789 242.78 167.912C244.999 166.035 247.943 165.096 251.612 165.096C255.879 165.096 259.505 166.419 262.492 169.064C265.564 171.709 267.1 175.08 267.1 179.176C267.1 180.285 266.972 181.437 266.716 182.632C268.764 183.144 270.727 183.4 272.604 183.4C274.823 183.4 276.657 182.803 278.108 181.608C279.559 180.413 280.284 178.749 280.284 176.616C280.199 174.653 279.217 172.989 277.34 171.624C275.463 170.173 272.476 168.467 268.38 166.504C264.54 164.712 261.383 163.048 258.908 161.512C256.433 159.891 254.3 157.885 252.508 155.496C250.801 153.107 249.948 150.291 249.948 147.048C249.948 140.051 252.849 134.504 258.652 130.408C264.54 126.227 272.86 124.136 283.612 124.136ZM360.767 124.648C371.604 124.648 379.455 126.397 384.319 129.896C389.183 133.309 391.615 137.704 391.615 143.08C391.615 144.701 391.444 146.195 391.103 147.56C389.823 153.192 386.239 157.245 380.351 159.72C374.548 162.109 367.679 163.304 359.743 163.304C355.732 163.304 351.978 163.048 348.479 162.536C348.394 166.973 349.588 170.088 352.063 171.88C354.538 173.672 357.994 174.568 362.431 174.568C364.479 174.568 366.442 174.355 368.319 173.928C370.196 173.416 372.586 172.691 375.487 171.752C377.876 170.899 379.498 170.472 380.351 170.472C381.29 170.472 381.759 171.027 381.759 172.136C381.844 175.123 380.735 178.28 378.431 181.608C376.127 184.851 372.714 187.624 368.191 189.928C363.668 192.232 358.207 193.384 351.807 193.384C342.335 193.384 334.57 190.995 328.511 186.216C322.452 181.437 319.423 174.483 319.423 165.352C319.423 162.792 319.764 159.805 320.447 156.392C322.58 145.896 327.231 138.003 334.399 132.712C341.652 127.336 350.442 124.648 360.767 124.648ZM349.375 154.856C349.716 154.941 350.186 154.984 350.783 154.984C354.367 154.984 357.098 153.32 358.975 149.992C360.852 146.664 361.748 142.952 361.663 138.856C361.578 136.467 360.895 135.272 359.615 135.272C358.676 135.272 357.567 136.04 356.287 137.576C355.007 139.027 353.727 141.245 352.447 144.232C351.252 147.219 350.228 150.76 349.375 154.856ZM510.728 175.336C510.557 175.677 510.472 176.189 510.472 176.872C510.472 177.469 510.6 177.939 510.856 178.28C511.197 178.621 511.624 178.792 512.136 178.792C513.16 178.792 514.013 178.365 514.696 177.512C515.464 176.573 515.976 176.104 516.232 176.104C516.659 176.104 517 176.403 517.256 177C517.512 177.512 517.64 178.152 517.64 178.92C517.725 181.395 516.915 183.827 515.208 186.216C513.501 188.52 510.984 190.44 507.656 191.976C504.413 193.427 500.488 194.152 495.88 194.152C490.248 194.152 485.768 192.872 482.44 190.312C479.112 187.667 477.405 184.168 477.32 179.816C477.32 176.659 478.088 173.117 479.624 169.192L486.664 150.76C487.091 149.651 487.304 148.755 487.304 148.072C487.304 146.963 486.92 146.109 486.152 145.512C485.469 144.829 484.616 144.488 483.592 144.488C482.141 144.488 480.648 145.128 479.112 146.408C477.576 147.688 476.211 149.693 475.016 152.424L467.976 175.336C467.805 175.677 467.72 176.189 467.72 176.872C467.72 177.469 467.848 177.939 468.104 178.28C468.445 178.621 468.872 178.792 469.384 178.792C470.408 178.792 471.261 178.365 471.944 177.512C472.712 176.573 473.224 176.104 473.48 176.104C473.907 176.104 474.248 176.403 474.504 177C474.76 177.512 474.888 178.152 474.888 178.92C474.973 181.395 474.163 183.827 472.456 186.216C470.749 188.52 468.232 190.44 464.904 191.976C461.661 193.427 457.736 194.152 453.128 194.152C447.496 194.152 443.016 192.872 439.688 190.312C436.36 187.667 434.653 184.168 434.568 179.816C434.568 176.659 435.336 173.117 436.872 169.192L443.912 150.76C444.339 149.651 444.552 148.755 444.552 148.072C444.552 146.963 444.168 146.109 443.4 145.512C442.717 144.829 441.864 144.488 440.84 144.488C439.389 144.488 437.896 145.128 436.36 146.408C434.824 147.603 433.544 149.565 432.52 152.296L424.072 179.688C423.731 180.627 423.56 181.523 423.56 182.376C423.56 183.4 423.773 184.253 424.2 184.936C424.627 185.533 425.224 186.173 425.992 186.856C426.589 187.368 427.016 187.837 427.272 188.264C427.528 188.691 427.571 189.203 427.4 189.8C427.059 190.909 426.248 191.72 424.968 192.232C423.688 192.744 421.683 193 418.952 193H389.768C387.549 193 385.971 192.659 385.032 191.976C384.008 191.208 383.624 190.227 383.88 189.032C384.221 188.008 385.117 187.112 386.568 186.344C387.848 185.661 388.915 184.851 389.768 183.912C390.621 182.973 391.347 181.48 391.944 179.432L403.336 142.44C403.507 142.013 403.592 141.416 403.592 140.648C403.592 139.709 403.379 138.984 402.952 138.472C402.611 137.96 402.013 137.32 401.16 136.552C400.307 135.869 399.709 135.272 399.368 134.76C399.027 134.248 398.984 133.565 399.24 132.712C399.752 130.749 402.44 129.043 407.304 127.592C412.168 126.056 417.245 125.288 422.536 125.288C426.717 125.288 430.003 126.44 432.392 128.744C434.867 131.048 436.061 134.205 435.976 138.216C439.475 133.352 443.144 129.981 446.984 128.104C450.909 126.227 455.133 125.288 459.656 125.288C464.605 125.288 468.616 126.739 471.688 129.64C474.845 132.456 476.595 136.168 476.936 140.776C480.605 134.973 484.531 130.963 488.712 128.744C492.893 126.44 497.459 125.288 502.408 125.288C507.613 125.288 511.795 126.867 514.952 130.024C518.195 133.181 519.816 137.277 519.816 142.312C519.816 144.957 519.389 147.56 518.536 150.12L510.728 175.336ZM588.405 124.776C594.72 124.776 599.754 127.037 603.509 131.56C607.349 136.083 609.269 142.056 609.269 149.48C609.269 153.32 608.8 157.075 607.861 160.744C605.13 171.752 600.437 180.072 593.781 185.704C587.21 191.336 579.616 194.152 570.997 194.152C566.133 194.152 561.909 193.341 558.325 191.72C554.826 190.013 552.01 187.624 549.877 184.552L545.269 188.52C543.477 190.056 541.728 191.208 540.021 191.976C538.314 192.659 536.352 193 534.133 193H528.501C526.368 193 524.704 192.573 523.509 191.72C522.4 190.781 521.845 189.459 521.845 187.752C521.845 186.984 521.973 186.088 522.229 185.064L543.605 115.56C543.861 114.792 543.989 114.152 543.989 113.64C543.989 112.189 543.093 110.824 541.301 109.544C540.448 108.776 539.85 108.179 539.509 107.752C539.168 107.24 539.125 106.6 539.381 105.832C539.978 103.869 542.666 102.163 547.445 100.712C552.309 99.176 557.386 98.408 562.677 98.408C567.626 98.408 571.253 99.3893 573.557 101.352C575.946 103.229 577.141 105.789 577.141 109.032C577.141 110.824 576.842 112.616 576.245 114.408L570.869 131.816C575.818 127.123 581.664 124.776 588.405 124.776ZM573.941 159.976C575.648 154.173 576.501 149.48 576.501 145.896C576.501 141.971 575.349 140.008 573.045 140.008C570.997 140.008 569.077 141.075 567.285 143.208L558.965 170.344L558.197 172.776C557.77 174.056 557.557 175.379 557.557 176.744C557.557 179.731 558.965 181.224 561.781 181.224C563.829 181.224 565.792 179.731 567.669 176.744C569.546 173.757 571.637 168.168 573.941 159.976ZM650.582 98.408C655.531 98.408 659.158 99.3467 661.462 101.224C663.851 103.101 665.046 105.661 665.046 108.904C665.046 110.781 664.747 112.616 664.15 114.408L644.054 179.688C643.798 180.712 643.67 181.608 643.67 182.376C643.67 183.485 643.883 184.381 644.31 185.064C644.737 185.661 645.334 186.259 646.102 186.856C646.699 187.453 647.126 187.965 647.382 188.392C647.638 188.733 647.681 189.203 647.51 189.8C647.083 190.909 646.23 191.72 644.95 192.232C643.67 192.744 641.707 193 639.062 193H609.878C607.659 193 606.038 192.659 605.014 191.976C603.99 191.208 603.649 190.227 603.99 189.032C604.331 188.008 605.227 187.112 606.678 186.344C607.958 185.661 609.025 184.851 609.878 183.912C610.731 182.973 611.457 181.48 612.054 179.432L631.51 115.56C631.766 114.792 631.894 114.152 631.894 113.64C631.894 112.701 631.638 111.933 631.126 111.336C630.699 110.739 630.102 110.141 629.334 109.544C628.481 108.861 627.841 108.264 627.414 107.752C627.073 107.24 627.03 106.557 627.286 105.704C627.798 103.741 630.486 102.035 635.35 100.584C640.214 99.1333 645.291 98.408 650.582 98.408ZM700.017 124.648C710.854 124.648 718.705 126.397 723.569 129.896C728.433 133.309 730.865 137.704 730.865 143.08C730.865 144.701 730.694 146.195 730.353 147.56C729.073 153.192 725.489 157.245 719.601 159.72C713.798 162.109 706.929 163.304 698.993 163.304C694.982 163.304 691.228 163.048 687.729 162.536C687.644 166.973 688.838 170.088 691.313 171.88C693.788 173.672 697.244 174.568 701.681 174.568C703.729 174.568 705.692 174.355 707.569 173.928C709.446 173.416 711.836 172.691 714.737 171.752C717.126 170.899 718.748 170.472 719.601 170.472C720.54 170.472 721.009 171.027 721.009 172.136C721.094 175.123 719.985 178.28 717.681 181.608C715.377 184.851 711.964 187.624 707.441 189.928C702.918 192.232 697.457 193.384 691.057 193.384C681.585 193.384 673.82 190.995 667.761 186.216C661.702 181.437 658.673 174.483 658.673 165.352C658.673 162.792 659.014 159.805 659.697 156.392C661.83 145.896 666.481 138.003 673.649 132.712C680.902 127.336 689.692 124.648 700.017 124.648ZM688.625 154.856C688.966 154.941 689.436 154.984 690.033 154.984C693.617 154.984 696.348 153.32 698.225 149.992C700.102 146.664 700.998 142.952 700.913 138.856C700.828 136.467 700.145 135.272 698.865 135.272C697.926 135.272 696.817 136.04 695.537 137.576C694.257 139.027 692.977 141.245 691.697 144.232C690.502 147.219 689.478 150.76 688.625 154.856Z" fill="#7911F8"/>
</svg>
